<?xml version="1.0" encoding="utf-8"?>
<!-- Generator: Adobe Illustrator 17.1.0, SVG Export Plug-In . SVG Version: 6.00 Build 0)  -->
<!DOCTYPE svg PUBLIC "-//W3C//DTD SVG 1.1//EN" "http://www.w3.org/Graphics/SVG/1.1/DTD/svg11.dtd">
<svg version="1.1" id="Layer_1" xmlns="http://www.w3.org/2000/svg" xmlns:xlink="http://www.w3.org/1999/xlink" x="0px" y="0px"
	 viewBox="1.5 524.6 768.1 242.8" enable-background="new 1.5 524.6 768.1 242.8" xml:space="preserve">
<g>
	<path fill="#FFFFFF" d="M48.8,594.8H39c-1.4,0-4.1-0.3-6.4-2.3v-0.1c-0.1,0-0.1,0.1-0.1,0.1c-2.3,2-5.1,2.3-6.5,2.3
		c-0.2,0-0.6,0-10,0v-10.1h0.2h8.7v-49.9H11.7v4.6H1.5v-5.2c0-0.7,0-2.7,0.8-4.5c-0.8-2-0.8-3.7-0.8-4.5v-0.6c0,0,24.2,0,24.4,0
		c1.4,0,4.3,0.3,6.6,2.4c0,0,0,0,0.1,0.1c0-0.1,0-0.1,0-0.1c2.4-2.1,5.2-2.4,6.5-2.4c0.3,0,24.4,0,24.4,0v0.6c0,0.8,0,2.6-0.8,4.5
		c0.8,1.9,0.8,3.8,0.8,4.5v5.2h-10v-4.6H40.2v49.9h8.7H49v10.1H48.8z"/>
	<path fill="#FFFFFF" d="M89.5,584.7h4.6v10.1c-5.3,0-5.5,0-5.7,0c-1.3,0-4.1-0.3-6.3-2.4c-0.1,0-0.2-0.1-0.3-0.2
		c0,0.1-0.1,0.2-0.2,0.2c-2.2,2.1-5,2.4-6.3,2.4c-0.2,0-0.4,0-5.7,0v-10.1h4.6v-7.8h-5v-10.1h5v-32h-4.6v-10.1h5.2
		c1.1-0.1,4.3,0,6.8,2.3c0.1,0.1,0.2,0.1,0.2,0.2c0.1-0.1,0.2-0.1,0.3-0.2c2.5-2.3,5.7-2.4,6.8-2.3h5.2v10.1h-4.6v32h22.6v-32h-4.6
		v-10.1h5.2c1.1-0.1,4.3,0,6.8,2.3c0.1,0.1,0.2,0.1,0.3,0.2c0-0.1,0.1-0.1,0.2-0.2c2.5-2.3,5.7-2.4,6.8-2.3h5.2v10.1h-4.6v32h4.3
		v10.1h-4.3v0.3v7.5h4.6v10.1c-5.3,0-5.5,0-5.6,0c-1.4,0-4.2-0.3-6.4-2.4c-0.1,0-0.2-0.1-0.2-0.2c-0.1,0.1-0.2,0.2-0.3,0.2
		c-2.2,2.1-5,2.4-6.3,2.4c-0.2,0-0.4,0-5.7,0v-10.1h4.6v-7.8H89.5V584.7z"/>
	<path fill="#FFFFFF" d="M145.3,567.1h-4.9V557h4.9v-22.2h-4.6v-10.1h5.2c1.1-0.1,4.3,0,6.9,2.3c0,0.1,0.1,0.1,0.2,0.2
		c0-0.1,0.1-0.1,0.2-0.2c2.5-2.3,5.7-2.4,6.8-2.3h19.5c1.1-0.1,4.3,0,6.9,2.3c0,0.1,0.1,0.1,0.2,0.2c0-0.1,0.1-0.1,0.2-0.2
		c2.5-2.3,5.7-2.4,6.8-2.3h0.4v15.1h-15.1v-5h-18.5V557h14.4v-4.5h10v5c0,0.9,0,2.7-0.8,4.6c0.8,1.9,0.8,3.7,0.8,4.5v5.1h-10V567
		h-14.4v17.7h18.5v-5H194v15.1h-0.4c-0.1,0-0.3,0-0.5,0c-1.4,0-4.1-0.3-6.3-2.3c-0.1-0.1-0.2-0.1-0.2-0.2c-0.1,0.1-0.2,0.1-0.2,0.2
		c-2.3,2-5.1,2.3-6.5,2.3c-0.1,0-20.2,0-20.3,0c-1.3,0-4.2-0.3-6.4-2.3c-0.1-0.1-0.2-0.1-0.2-0.2c-0.1,0.1-0.2,0.1-0.2,0.2
		c-2.3,2-5.1,2.3-6.4,2.3c-0.2,0-0.4,0-5.7,0v-10.1h4.6V567.1z"/>
	<path fill="#FFFFFF" d="M238.6,567h-5v-10h5v-22.2H234v-10.1h5.2c1.1-0.1,4.3,0,6.8,2.3c0.1,0.1,0.2,0.1,0.2,0.2
		c0.1-0.1,0.2-0.1,0.3-0.2c2.5-2.3,5.7-2.4,6.8-2.3H282c1.1-0.1,4,0,6.4,2.2c1.2,1,2.8,3.2,2.8,6.7v17.1c0,3.4-1.5,5.5-2.8,6.7
		c-0.5,0.4-1.2,0.9-1.9,1.1c0.7,0.3,1.7,0.8,2.3,1.4c1.2,1.1,2.8,3.3,2.8,6.7v19.2c0,3.5-1.5,5.6-2.8,6.7c-2.1,1.9-4.6,2.2-6,2.2
		c-0.1,0-30.1,0-30.2,0c-1.4,0-4.2-0.3-6.4-2.3c-0.1,0-0.1,0-0.1-0.1c0,0.1,0,0.1-0.1,0.1c-2.2,2-5,2.3-6.3,2.3c-0.2,0-5.7,0-5.7,0
		v-10.1h4.6V567z M253.8,534.8V557h22.3v-22.2H253.8z M276.4,584.7V567h-22.6v17.7H276.4z"/>
	<path fill="#FFFFFF" d="M315,594.8c-1.4,0-3.9-0.3-6.1-2.2c-1.2-1.1-2.8-3.2-2.8-6.7V567h-5v-10.1h5v-23.4c0-3.4,1.5-5.6,2.8-6.7
		c2.4-2.1,5.4-2.2,6.5-2.2h34.2c1.1,0,3.9,0.1,6.3,2.2c1.3,1.1,2.8,3.3,2.8,6.7v23.4h4.6V567h-4.6v18.9c0,3.5-1.4,5.6-2.8,6.7
		c-2.1,1.9-4.6,2.2-5.9,2.2H315z M321.4,534.8v49.9h22.2v-49.9H321.4z"/>
	<path fill="#FFFFFF" d="M392.1,584.7h4.6v10.1c-5.3,0-5.5,0-5.7,0c-1.3,0-4.1-0.3-6.3-2.4c-0.1,0-0.2-0.1-0.3-0.2
		c0,0.1-0.1,0.2-0.2,0.2c-2.2,2.1-5,2.4-6.3,2.4c-0.2,0-0.4,0-5.7,0v-10.1h4.6v-7.8h-5v-10.1h5v-32h-4.6v-10.1h5.2
		c1.1-0.1,4.3,0,6.8,2.3c0.1,0.1,0.2,0.1,0.2,0.2c0.1-0.1,0.2-0.1,0.3-0.2c2.5-2.3,5.7-2.4,6.8-2.3h5.2v10.1h-4.6v32h22.6v-32h-4.6
		v-10.1h5.2c1.1-0.1,4.3,0,6.8,2.3c0.1,0.1,0.2,0.1,0.3,0.2c0-0.1,0.1-0.1,0.2-0.2c2.5-2.3,5.7-2.4,6.8-2.3h5.2v10.1h-4.6v32h4.3
		v10.1h-4.3v0.3v7.5h4.6v10.1c-5.3,0-5.5,0-5.6,0c-1.4,0-4.2-0.3-6.4-2.4c-0.1,0-0.2-0.1-0.2-0.2c-0.1,0.1-0.2,0.2-0.3,0.2
		c-2.2,2.1-5,2.4-6.3,2.4c-0.2,0-0.4,0-5.7,0v-10.1h4.6v-7.8h-22.6V584.7z"/>
	<path fill="#FFFFFF" d="M447.9,567.1H443V557h4.9v-22.2h-4.6v-10.1h5.2c1.1-0.1,4.3,0,6.9,2.3c0,0.1,0.1,0.1,0.2,0.2
		c0-0.1,0.1-0.1,0.2-0.2c2.5-2.3,5.7-2.4,6.8-2.3h19.5c1.1-0.1,4.3,0,6.9,2.3c0,0.1,0.1,0.1,0.2,0.2c0-0.1,0.1-0.1,0.2-0.2
		c2.5-2.3,5.7-2.4,6.8-2.3h0.4v15.1h-15.1v-5h-18.5V557h14.4v-4.5h10v5c0,0.9,0,2.7-0.8,4.6c0.8,1.9,0.8,3.7,0.8,4.5v5.1h-10V567
		h-14.4v17.7h18.5v-5h15.1v15.1h-0.4c-0.1,0-0.3,0-0.5,0c-1.4,0-4.1-0.3-6.3-2.3c-0.1-0.1-0.2-0.1-0.2-0.2c-0.1,0.1-0.2,0.1-0.2,0.2
		c-2.3,2-5.1,2.3-6.5,2.3c-0.1,0-20.2,0-20.3,0c-1.3,0-4.2-0.3-6.4-2.3c-0.1-0.1-0.2-0.1-0.2-0.2c-0.1,0.1-0.2,0.1-0.2,0.2
		c-2.3,2-5.1,2.3-6.4,2.3c-0.2,0-0.4,0-5.7,0v-10.1h4.6V567.1z"/>
	<path fill="#FFFFFF" d="M542.5,556.9l15.5-22.1h-4.1v-10.2h5.1c1.1,0,4.3,0.1,6.9,2.4c0,0,0.1,0.1,0.2,0.2c0-0.1,0-0.2,0.1-0.2
		c2.6-2.3,5.8-2.4,7-2.4h5v10.2h-4.5v49.9h4.5v10.1h-5.5c-1.4,0-4.2-0.3-6.5-2.3c-0.1-0.1-0.1-0.1-0.1-0.2c-0.1,0.1-0.2,0.1-0.2,0.2
		c-2.3,2-5.1,2.3-6.5,2.3c-0.2,0-0.3,0-5.5,0v-10.1h4.5V553l-15.9,23l-15.6-22.5v31.2h4.6v10.1h-5.7c-1.3,0-4.1-0.3-6.3-2.3
		c-0.1-0.1-0.1-0.1-0.2-0.2c-0.1,0.1-0.2,0.1-0.2,0.2c-2.3,2-5.1,2.3-6.5,2.3c-0.1,0-0.2,0-5.5,0v-10.1h4.5v-49.9h-4.5v-10.2h5.1
		c1.1,0,4.3,0.1,6.9,2.4c0,0,0.1,0.1,0.2,0.2c0.1-0.1,0.1-0.2,0.2-0.2c2.5-2.3,5.7-2.4,6.8-2.4h5.2v10.2h-4.6L542.5,556.9z"/>
	<path fill="#FFFFFF" d="M608.6,524.6h5.2v10.2h-4.6v49.9h4.6v10.1c-5.2,0-5.4,0-5.6,0c-1.4,0-4.2-0.3-6.4-2.3
		c-0.1-0.1-0.2-0.1-0.3-0.2c0,0.1,0,0.1-0.1,0.2c-2.3,2-5,2.3-6.4,2.3c-0.2,0-0.4,0-5.6,0v-10.1h4.6v-49.9h-4.6v-10.2h5.1
		c1.1,0,4.4,0.1,6.9,2.4c0.1,0,0.1,0.1,0.1,0.2c0.1-0.1,0.2-0.2,0.3-0.2C604.3,524.7,607.5,524.6,608.6,524.6z"/>
	<path fill="#FFFFFF" d="M621.8,594.8v-10.1h4.7c0.2-1.8,2.7-15.9,3-17.4h-3.5v-10h5.6c1.7-7.3,3.6-16.5,4.4-22.4h-4.5v-10.1h5.2
		c1.1-0.1,4.3,0,6.8,2.3c0.1,0.1,0.2,0.1,0.2,0.2c0.1-0.1,0.2-0.1,0.3-0.2c2.5-2.3,5.7-2.4,6.8-2.3h4.7c1.1-0.1,4.3,0,6.8,2.3
		c0.1,0.1,0.2,0.1,0.2,0.2c0.1-0.1,0.2-0.1,0.3-0.2c2.5-2.3,5.7-2.4,6.8-2.3h5.2v10.1h-4.4c0.7,5.9,2.8,15.1,4.3,22.4h5.5v10h-3.5
		c0.4,1.5,2.9,15.7,3.1,17.4h4.6v10.1c0,0-5.4,0-5.6,0c-1.3,0-4.1-0.3-6.4-2.3c0-0.1-0.1-0.1-0.2-0.2c-0.1,0.1-0.1,0.1-0.2,0.2
		c-2.2,2-5.1,2.3-6.3,2.3c-0.2,0-5.7,0-5.7,0v-10.1h4.4c-0.2-2-2.7-15.1-3.2-17.4h-16.3c-0.5,2.4-3,15.5-3.2,17.4h4.4v10.1
		c0,0-5.5,0-5.6,0c-1.4,0-4.2-0.3-6.4-2.3c-0.1-0.1-0.2-0.1-0.2-0.2c-0.1,0.1-0.2,0.1-0.3,0.2c-2.2,2-4.9,2.3-6.3,2.3
		C627.3,594.8,621.8,594.8,621.8,594.8z M647.1,557.2h12.2c-0.6-3.6-3.9-20.6-4.1-22.4h-3.9C651.1,536.6,647.9,553.7,647.1,557.2z"
		/>
	<path fill="#FFFFFF" d="M752.5,584.7h4.6v10.1h-5.6c-1.4,0-4.1-0.3-6.4-2.3c-0.1-0.1-0.1-0.1-0.2-0.2c-0.1,0.1-0.1,0.1-0.2,0.2
		c-2.3,2-5.1,2.3-6.5,2.3c-0.1,0-0.2,0-5.5,0v-10.1h4.3c-8.4-11-18.8-23.3-26.1-33v33h4.5v10.1h-5.6c-1.3,0-4.1-0.3-6.4-2.3
		c-0.1-0.1-0.1-0.1-0.2-0.2c-0.1,0.1-0.1,0.1-0.2,0.2c-2.3,2-5.1,2.3-6.4,2.3c-0.2,0-0.3,0-5.6,0v-10.1h4.5v-49.9h-4.5v-10.2h5.1
		c1.2,0,4.3,0.1,6.9,2.4c0.1,0,0.1,0.1,0.2,0.2c0.1-0.1,0.1-0.2,0.2-0.2c2.6-2.3,5.7-2.4,6.9-2.4h5.1v10.2h-3.7
		c1,1.2,22.9,28.3,25.5,31.8v-31.8h-4.5v-10.2h5.1c1.2,0,4.3,0.1,6.9,2.4c0.1,0,0.1,0.1,0.2,0.2c0.1-0.1,0.1-0.2,0.2-0.2
		c2.6-2.3,5.7-2.4,6.9-2.4h5.1v10.2h-4.6V584.7z"/>
</g>
<g>
	<path fill="#FFFFFF" d="M28.3,660h-6.9v-13.9h6.9v-30.7h-6.4v-14H29c1.6-0.1,6,0,9.4,3.1c0.1,0.1,0.3,0.1,0.3,0.3
		c0.1-0.1,0.3-0.1,0.4-0.3c3.4-3.1,7.9-3.3,9.4-3.1h39.7c1.6-0.1,5.6,0,8.9,3c1.7,1.4,3.9,4.4,3.9,9.3v23.7c0,4.7-2.1,7.6-3.9,9.3
		c-0.7,0.6-1.7,1.3-2.6,1.6c1,0.4,2.3,1.1,3.1,2c1.7,1.6,3.9,4.6,3.9,9.3v26.6c0,4.9-2.1,7.7-3.9,9.3c-2.9,2.6-6.4,3-8.3,3
		c-0.1,0-41.7,0-41.8,0c-2,0-5.9-0.4-8.9-3.1c-0.1,0-0.1,0-0.1-0.1c0,0.1,0,0.1-0.1,0.1c-3,2.7-6.9,3.1-8.7,3.1c-0.3,0-7.9,0-7.9,0
		v-14h6.4V660z M49.3,615.4v30.7h30.8v-30.7H49.3z M80.5,684.4V660H49.3v24.4H80.5z"/>
	<path fill="#FFFFFF" d="M111.7,698.4v-14h6.6c0.3-2.4,3.7-22,4.1-24.1h-4.9v-13.9h7.7c2.3-10.1,5-22.8,6.1-31h-6.3v-14h7.1
		c1.6-0.1,6,0,9.4,3.1c0.1,0.1,0.3,0.1,0.3,0.3c0.1-0.1,0.3-0.1,0.4-0.3c3.4-3.1,7.9-3.3,9.4-3.1h6.6c1.6-0.1,6,0,9.4,3.1
		c0.1,0.1,0.3,0.1,0.3,0.3c0.1-0.1,0.3-0.1,0.4-0.3c3.4-3.1,7.9-3.3,9.4-3.1h7.1v14h-6.1c1,8.1,3.9,20.8,6,31h7.6v13.9h-4.9
		c0.6,2.1,4,21.7,4.3,24.1h6.4v14c0,0-7.4,0-7.7,0c-1.9,0-5.7-0.4-8.9-3.1c0-0.1-0.1-0.1-0.3-0.3c-0.1,0.1-0.1,0.1-0.3,0.3
		c-3,2.7-7,3.1-8.7,3.1c-0.3,0-7.9,0-7.9,0v-14h6.1c-0.3-2.7-3.7-20.8-4.4-24.1h-22.6c-0.7,3.3-4.1,21.4-4.4,24.1h6.1v14
		c0,0-7.6,0-7.7,0c-2,0-5.9-0.4-8.9-3.1c-0.1-0.1-0.3-0.1-0.3-0.3c-0.1,0.1-0.3,0.1-0.4,0.3c-3,2.7-6.7,3.1-8.7,3.1
		C119.2,698.4,111.7,698.4,111.7,698.4z M146.6,646.4h16.8c-0.9-5-5.4-28.6-5.7-31h-5.4C152.1,617.9,147.6,641.6,146.6,646.4z"/>
	<path fill="#FFFFFF" d="M261.9,628.3v-12.9h-25.6V632c0,0,41.7,29.7,42.7,30.6c1.9,1.6,3.7,4.4,3.7,9.1v14.4c0,4.9-1.9,7.7-3.7,9.3
		c-3,2.6-6.4,3-8.3,3c-0.3,0-35.6,0-35.8,0c-1.7,0-5.7-0.4-8.7-3.1c-0.1-0.1-0.1-0.1-0.3-0.3c-0.1,0.1-0.3,0.1-0.3,0.3
		c-3.1,2.7-7,3.1-8.9,3.1c-0.3,0-0.4,0-7.7,0v-14h6.3v-11H209v-13.9h7c1.6-0.1,6,0,9.6,3.1c0,0.1,0.1,0.3,0.3,0.3
		c0.1,0,0.1-0.1,0.3-0.3c3.4-3.1,7.9-3.3,9.4-3.1h7.1v13.9h-6.4v11h25.6v-16.7c0,0-41.6-29.3-42.7-30.3c-0.4-0.4-3.9-3.3-3.9-9.1
		v-12.9H209v-14h7c1.1,0,3.7,0,6.1,1.1c1.1,0.4,2.4,1.1,3.4,2.1c0,0,0.1,0.1,0.3,0.3c0.1-0.1,0.1-0.3,0.3-0.3c2.7-2.4,6-3.1,8-3.3
		c0.7,0,1.1,0,28.4,0c1.6,0,6,0.1,9.6,3.3c0,0,0.1,0.1,0.3,0.3c0-0.1,0.1-0.3,0.1-0.3c3.4-3.1,8-3.3,9.6-3.3h0.6v26.8H261.9z"/>
	<path fill="#FFFFFF" d="M302.1,660.1h-6.7v-14h6.7v-30.7h-6.4v-14h7.1c1.6-0.1,6,0,9.6,3.1c0,0.1,0.1,0.1,0.3,0.3
		c0-0.1,0.1-0.1,0.3-0.3c3.4-3.1,7.9-3.3,9.4-3.1h27c1.6-0.1,6,0,9.6,3.1c0,0.1,0.1,0.1,0.3,0.3c0-0.1,0.1-0.1,0.3-0.3
		c3.4-3.1,7.9-3.3,9.4-3.1h0.6v20.8h-20.8v-6.9h-25.6v30.7H343v-6.3h13.9v6.9c0,1.3,0,3.7-1.1,6.4c1.1,2.6,1.1,5.1,1.1,6.3v7H343
		V660h-19.8v24.4h25.6v-6.9h20.8v20.8H369c-0.1,0-0.4,0-0.7,0c-2,0-5.7-0.4-8.7-3.1c-0.1-0.1-0.3-0.1-0.3-0.3
		c-0.1,0.1-0.3,0.1-0.3,0.3c-3.1,2.7-7,3.1-9,3.1c-0.1,0-28,0-28.1,0c-1.9,0-5.9-0.4-8.9-3.1c-0.1-0.1-0.3-0.1-0.3-0.3
		c-0.1,0.1-0.3,0.1-0.3,0.3c-3.1,2.7-7,3.1-8.9,3.1c-0.3,0-0.6,0-7.9,0v-14h6.4V660.1z"/>
	<path fill="#FFFFFF" d="M432.9,646l21.4-30.6h-5.7v-14.1h7c1.6,0,6,0.1,9.6,3.3c0,0,0.1,0.1,0.3,0.3c0-0.1,0-0.3,0.1-0.3
		c3.6-3.1,8-3.3,9.7-3.3h6.9v14.1h-6.3v69h6.3v14h-7.6c-2,0-5.9-0.4-9-3.1c-0.1-0.1-0.1-0.1-0.1-0.3c-0.1,0.1-0.3,0.1-0.3,0.3
		c-3.1,2.7-7,3.1-9,3.1c-0.3,0-0.4,0-7.6,0v-14h6.3v-43.8l-22,31.8l-21.6-31.1v43.1h6.4v14H410c-1.9,0-5.7-0.4-8.7-3.1
		c-0.1-0.1-0.1-0.1-0.3-0.3c-0.1,0.1-0.3,0.1-0.3,0.3c-3.1,2.7-7,3.1-9,3.1c-0.1,0-0.3,0-7.6,0v-14h6.3v-69h-6.3v-14.1h7
		c1.6,0,6,0.1,9.6,3.3c0,0,0.1,0.1,0.3,0.3c0.1-0.1,0.1-0.3,0.3-0.3c3.4-3.1,7.9-3.3,9.4-3.3h7.1v14.1h-6.4L432.9,646z"/>
	<path fill="#FFFFFF" d="M501.5,660.1h-6.7v-14h6.7v-30.7h-6.4v-14h7.1c1.6-0.1,6,0,9.6,3.1c0,0.1,0.1,0.1,0.3,0.3
		c0-0.1,0.1-0.1,0.3-0.3c3.4-3.1,7.9-3.3,9.4-3.1h27c1.6-0.1,6,0,9.6,3.1c0,0.1,0.1,0.1,0.3,0.3c0-0.1,0.1-0.1,0.3-0.3
		c3.4-3.1,7.9-3.3,9.4-3.1h0.6v20.8H548v-6.9h-25.6v30.7h19.8v-6.3h13.9v6.9c0,1.3,0,3.7-1.1,6.4c1.1,2.6,1.1,5.1,1.1,6.3v7h-13.9
		V660h-19.8v24.4H548v-6.9h20.8v20.8h-0.6c-0.1,0-0.4,0-0.7,0c-2,0-5.7-0.4-8.7-3.1c-0.1-0.1-0.3-0.1-0.3-0.3
		c-0.1,0.1-0.3,0.1-0.3,0.3c-3.1,2.7-7,3.1-9,3.1c-0.1,0-28,0-28.1,0c-1.9,0-5.9-0.4-8.9-3.1c-0.1-0.1-0.3-0.1-0.3-0.3
		c-0.1,0.1-0.3,0.1-0.3,0.3c-3.1,2.7-7,3.1-8.9,3.1c-0.3,0-0.6,0-7.9,0v-14h6.4V660.1z"/>
	<path fill="#FFFFFF" d="M668.1,684.4h6.4v14h-7.7c-2,0-5.7-0.4-8.9-3.1c-0.1-0.1-0.1-0.1-0.3-0.3c-0.1,0.1-0.1,0.1-0.3,0.3
		c-3.1,2.7-7,3.1-9,3.1c-0.1,0-0.3,0-7.6,0v-14h6c-11.6-15.3-26-32.3-36.1-45.7v45.7h6.3v14h-7.7c-1.9,0-5.7-0.4-8.9-3.1
		c-0.1-0.1-0.1-0.1-0.3-0.3c-0.1,0.1-0.1,0.1-0.3,0.3c-3.1,2.7-7,3.1-8.9,3.1c-0.3,0-0.4,0-7.7,0v-14h6.3v-69h-6.3v-14.1h7
		c1.7,0,6,0.1,9.6,3.3c0.1,0,0.1,0.1,0.3,0.3c0.1-0.1,0.1-0.3,0.3-0.3c3.6-3.1,7.9-3.3,9.6-3.3h7v14.1h-5.1
		c1.4,1.7,31.7,39.1,35.3,44v-44h-6.3v-14.1h7c1.7,0,6,0.1,9.6,3.3c0.1,0,0.1,0.1,0.3,0.3c0.1-0.1,0.1-0.3,0.3-0.3
		c3.6-3.1,7.9-3.3,9.6-3.3h7v14.1h-6.4V684.4z"/>
	<path fill="#FFFFFF" d="M749.4,698.4h-13.6c-2,0-5.7-0.4-8.9-3.1v-0.1c-0.1,0-0.1,0.1-0.1,0.1c-3.1,2.7-7,3.1-9,3.1
		c-0.3,0-0.9,0-13.9,0v-14h0.3h12v-69H698v6.4h-14v-7.1c0-1,0-3.7,1.1-6.3c-1.1-2.7-1.1-5.1-1.1-6.3v-0.9c0,0,33.4,0,33.7,0
		c2,0,6,0.4,9.1,3.3c0,0,0,0,0.1,0.1c0-0.1,0-0.1,0-0.1c3.3-2.9,7.1-3.3,9-3.3c0.4,0,33.7,0,33.7,0v0.9c0,1.1,0,3.6-1.1,6.3
		c1.1,2.6,1.1,5.3,1.1,6.3v7.1h-13.9v-6.4h-18.4v69h12h0.3v14H749.4z"/>
</g>
<g>
	<path fill="#FFFFFF" d="M204.9,741.2c0.4,0.2,0.6,0.4,0.6,0.4c0,0.2-0.3,1-0.8,2.3c-0.5,1.3-1.2,2.8-2.2,4.4c-0.9,1.6-2,3-3.3,4.2
		c-1.3,1.2-2.7,1.8-4.3,1.8c-1.7,0-3.2-0.9-4.4-2.6c-1.2-1.7-1.8-3.8-1.8-6.2c0-1.3,0.1-2.5,0.3-3.5c0.2-1,0.5-2.1,0.8-3.4
		c-0.8,1.5-1.7,3.1-2.6,4.8c-0.9,1.7-1.7,3.4-2.6,5c-0.8,1.6-1.5,3.2-2.2,4.6c-0.6,1.4-1.1,2.5-1.3,3.3c-0.3,0.9-0.8,1.6-1.5,2.1
		c-0.7,0.5-1.5,0.8-2.3,0.8c-0.9,0-1.7-0.4-2.5-1.1c-0.8-0.7-1.2-2.1-1.2-4c0-1.8,0.3-4,0.8-6.6c0.6-2.6,1.3-5.4,2.1-8.4
		c0.9-2.9,1.8-5.9,2.8-8.9c1-3,2-5.7,2.9-8.2c0.9-2.5,1.8-4.6,2.5-6.4c0.7-1.8,1.2-3,1.5-3.6c0.2-0.8,0.5-1.6,0.8-2.5
		c0.2-0.7,0.4-1.3,0.6-2c0.2-0.7,0.3-1.2,0.3-1.7c0.1,0.1,0.4,0.2,1.1,0.5c0.7,0.3,1.4,0.6,2.2,1.1c0.8,0.4,1.5,1,2.1,1.6
		c0.6,0.6,0.9,1.4,0.9,2.2c0,0.9-0.2,1.9-0.6,2.9c-0.4,0.7-1,2-1.8,3.9c-0.9,1.9-1.8,4-3,6.4c-1.1,2.4-2.3,5-3.5,7.8
		s-2.3,5.5-3.3,8.1c-1,2.6-1.8,5.1-2.5,7.3c-0.7,2.2-1,4-1,5.4c0-0.1,0-0.1,0.1-0.1c3.1-5.7,5.8-10.2,8-13.6c2.2-3.4,4-6.1,5.4-8.1
		c1.4-2,2.4-3.4,3-4.2c0.6-0.9,0.8-1.5,0.6-2.1c0.1,0,0.4,0.2,0.9,0.5c0.6,0.3,1.1,0.8,1.7,1.3c0.6,0.6,1.2,1.2,1.7,1.8
		c0.5,0.6,0.8,1.3,0.8,2c0,0.4-0.1,0.9-0.3,1.6c-0.4,1.2-1,2.4-1.7,3.6c-0.7,1.2-1.4,2.5-2.1,3.7c-0.7,1.3-1.3,2.6-1.8,4
		c-0.5,1.4-0.7,2.8-0.7,4.2c0,0.8,0.1,1.6,0.3,2.3c0.2,0.7,0.7,1.1,1.4,1.1c1,0,2.3-0.8,3.9-2.3c1.6-1.5,3.1-4,4.6-7.4
		c0-0.1,0.1-0.1,0.2-0.1C204.6,741.2,204.8,741.2,204.9,741.2z"/>
	<path fill="#FFFFFF" d="M233.5,741.2c0.4,0.2,0.6,0.4,0.6,0.4c0,0.3-0.2,1.2-0.7,2.8c-0.5,1.6-1.2,3.2-2.1,5
		c-0.9,1.8-2,3.4-3.3,4.9c-1.3,1.5-2.8,2.2-4.4,2.2c-1.1,0-2.3-0.5-3.4-1.4c-1.2-0.9-2-2.5-2.5-4.9c-0.3,0.4-0.7,0.8-1.1,1.3
		c-0.4,0.5-0.9,0.9-1.6,1.3c-0.6,0.4-1.4,0.8-2.2,1.1c-0.9,0.3-1.9,0.4-3.2,0.4c-1.7,0-3.1-0.4-4.2-1.2c-1.1-0.8-1.9-1.8-2.5-3
		c-0.6-1.2-1-2.4-1.2-3.6s-0.3-2.3-0.3-3.2c0-2.1,0.4-4.3,1.2-6.5c0.8-2.3,2-4.3,3.4-6.2c1.5-1.9,3.2-3.4,5.1-4.6
		c2-1.2,4.1-1.8,6.5-1.8c1.6,0,2.9,0.2,3.8,0.7c0.9,0.5,1.8,1,2.6,1.5c0.1-0.2,0.2-0.5,0.3-0.7c0-0.3,0.1-0.5,0.2-0.6
		c0.1,0,0.4,0.2,1,0.5c0.6,0.3,1.2,0.8,1.9,1.3c0.7,0.6,1.3,1.2,1.8,1.8c0.5,0.6,0.8,1.3,0.8,2c0,0.6-0.1,1.2-0.3,1.7
		c-0.2,0.6-0.5,1.1-0.8,1.7h-0.1c-0.6,1.1-1.2,2.3-2,3.6c-0.7,1.3-1.4,2.6-2,4c-0.6,1.3-1.1,2.7-1.5,4.1c-0.4,1.4-0.6,2.8-0.6,4.1
		c0,2.5,0.5,3.7,1.6,3.7c1,0,2.4-1,4-3.1c1.6-2,3.1-5.2,4.5-9.3c0-0.1,0.1-0.1,0.2-0.1C233.2,741.2,233.4,741.2,233.5,741.2z
		 M217.4,748.1c0-2.5,0.4-5.1,1.2-7.8c0.8-2.7,1.6-5,2.5-6.9c-0.7-0.7-1.4-1.4-2.1-1.8c-0.7-0.5-1.6-0.7-2.5-0.7
		c-1.3,0-2.5,0.4-3.9,1.2c-1.3,0.8-2.5,1.9-3.6,3.2c-1.1,1.3-2,2.8-2.7,4.4c-0.7,1.6-1.1,3.3-1.1,4.9c0,0.8,0.1,1.6,0.2,2.5
		c0.1,0.8,0.4,1.6,0.8,2.3c0.4,0.7,1,1.3,1.7,1.8c0.7,0.4,1.7,0.7,3,0.7c1.3,0,2.5-0.3,3.6-1C215.5,750.1,216.5,749.2,217.4,748.1z"
		/>
	<path fill="#FFFFFF" d="M246.9,750.3c-1-1.5-1.6-3.5-1.6-5.9c0-2,0.2-3.8,0.7-5.4c0.4-1.6,1-3.4,1.8-5.4c-0.7,1.3-1.5,2.8-2.5,4.6
		c-1,1.8-2,3.7-3,5.6c-1,1.9-1.8,3.7-2.6,5.4c-0.8,1.7-1.3,2.9-1.5,3.7c-0.4,1-0.7,1.7-1.1,2.2c-0.4,0.5-0.8,1-1.3,1.5
		c-0.5,0.4-1,0.7-1.6,0.7c-1.8,0-3-0.7-3.6-2.1c-0.6-1.4-0.9-3.2-0.9-5.4c0-2.5,0.3-4.9,0.9-7.3c0.6-2.4,1.3-4.5,2-6.5
		c0.7-1.9,1.5-3.6,2.1-4.9c0.7-1.3,1.1-2.1,1.2-2.4c0.4-0.9,0.9-2,1.3-3.2s0.7-2.1,0.9-2.6c0.2,0,0.6,0.2,1.2,0.6
		c0.6,0.4,1.2,0.8,1.7,1.4c0.6,0.6,1.1,1.2,1.5,1.8c0.4,0.7,0.7,1.3,0.7,1.9c0,1.3-0.4,2.7-1.3,4.2c-0.9,1.6-1.9,3.3-3,5.1
		c-1.1,1.8-2.1,3.7-3,5.7s-1.3,4.1-1.3,6.4c0,0.6,0,1,0.1,1.3c2.5-4.7,4.6-8.6,6.4-11.7c1.8-3.1,3.4-5.6,4.7-7.5
		c1.3-1.9,2.5-3.4,3.3-4.5c0.9-1.1,1.6-2,2.2-2.7c0.6-0.7,1-1.3,1.3-1.9c0.3-0.6,0.6-1.4,0.8-2.4c0.1,0,0.4,0.2,0.9,0.5
		c0.6,0.3,1.1,0.8,1.7,1.3c0.6,0.6,1.2,1.2,1.7,1.8c0.5,0.6,0.8,1.3,0.8,2c0,0.2-0.1,0.6-0.2,1.2c-0.1,0.6-0.3,1-0.6,1.3
		c-0.6,1.3-1.3,2.6-2.2,4c-0.9,1.4-1.7,2.8-2.5,4.3c-0.8,1.5-1.5,3-2,4.5c-0.6,1.5-0.8,3-0.8,4.5c0,0.8,0.1,1.5,0.3,2.1
		c0.2,0.6,0.6,0.8,1.3,0.8c1,0,2.2-0.8,3.9-2.3c1.6-1.5,3.1-4,4.6-7.4l0.2-0.1c0.2,0,0.4,0.1,0.7,0.3l0.2,0.2c0,0.1-0.2,0.9-0.7,2.2
		c-0.5,1.3-1.2,2.7-2.1,4.3c-0.9,1.6-2,3-3.3,4.2c-1.3,1.3-2.8,1.9-4.4,1.9c-0.7,0-1.4-0.1-2.1-0.4
		C248.3,751.8,247.6,751.2,246.9,750.3z"/>
	<path fill="#FFFFFF" d="M288.6,749.1c-0.3,0.4-0.7,1-1.2,1.6c-0.5,0.6-1.1,1.2-1.8,1.7c-0.7,0.6-1.5,1-2.4,1.4s-1.9,0.6-3,0.6
		c-0.8,0-1.8-0.2-3-0.7c-1.2-0.5-1.9-1.4-2.3-2.8c-0.6,0.6-1.6,1.4-3,2.3c-1.4,1-3.1,1.5-5,1.5c-1.6,0-3-0.4-4.1-1.2
		c-1.1-0.8-2-1.7-2.7-2.8c-0.7-1.1-1.2-2.3-1.5-3.6c-0.3-1.3-0.4-2.5-0.4-3.6c0-1.8,0.4-3.8,1.1-6c0.7-2.2,1.8-4.3,3.2-6.2
		c1.4-1.9,3.1-3.6,5.1-4.9c2-1.3,4.2-2,6.7-2c1.1,0,2.1,0.1,3.1,0.3c0.9,0.2,1.7,0.5,2.4,0.9c1.1-2.8,2.1-5.3,3-7.3
		c0.9-2,1.5-3.6,2-4.6l0.8-2.3c0.2-0.7,0.4-1.3,0.6-2c0.2-0.7,0.3-1.2,0.3-1.7c0.1,0.1,0.6,0.2,1.2,0.5c0.7,0.3,1.4,0.6,2.1,1.1
		c0.7,0.4,1.4,1,2,1.6c0.6,0.6,0.9,1.4,0.9,2.2c0,0.4,0,0.8-0.1,1.2c-0.1,0.4-0.2,1-0.4,1.6c-0.5,1.2-1.5,3.2-2.9,6.1
		c-1.4,2.9-2.9,6-4.4,9.3c-1.5,3.3-2.9,6.6-4,9.9c-1.2,3.2-1.7,5.8-1.7,7.6c0,1.6,0.6,2.3,1.9,2.3c1.3,0,2.8-0.8,4.7-2.3
		c1.9-1.5,3.5-4,5-7.4l0.2-0.1c0.3,0,0.6,0.1,0.8,0.3l0.2,0.2c0,0.3-0.2,1.2-0.7,2.6C290.8,745.7,289.9,747.3,288.6,749.1z
		 M274.6,748.8c-0.1-0.3-0.1-0.8-0.1-1.6c0-2.1,0.3-4.4,0.9-7c0.6-2.6,1.3-5.2,2.2-7.8c-1.2-1-2.6-1.5-4.1-1.5
		c-1.5,0-2.9,0.5-4.3,1.4c-1.4,0.9-2.6,2.1-3.6,3.6c-1,1.5-1.9,3-2.5,4.7c-0.6,1.7-0.9,3.4-0.9,5c0,2.2,0.7,3.7,2,4.7
		c1.3,1,2.8,1.5,4.4,1.5c1.2,0,2.3-0.3,3.4-0.8C272.9,750.6,273.8,749.8,274.6,748.8z"/>
	<path fill="#FFFFFF" d="M307.9,751.9c-0.4,1.2-0.9,1.9-1.7,2.2c-0.7,0.3-1.3,0.4-1.6,0.4c-1.8,0-3-0.7-3.6-2
		c-0.6-1.3-0.9-3.1-0.9-5.4c0-1.6,0.1-3.2,0.4-4.9c0.3-1.7,0.7-3.3,1.2-5c-1.1,2.4-2.1,4.6-3,6.7c-0.9,2.1-1.7,3.9-2.5,5.4
		c-0.8,1.5-1.5,2.7-2.2,3.6c-0.7,0.9-1.4,1.3-2.2,1.3c-1.7,0-2.9-0.6-3.5-1.8c-0.6-1.2-0.9-2.9-0.9-5.2c0-2.8,0.4-5.7,1.2-8.5
		c0.8-2.9,1.7-5.5,2.7-7.8c1-2.3,1.9-4.3,2.7-5.7c0.8-1.5,1.3-2.2,1.5-2.2c0.6,0,1.3,0.2,2,0.4c0.7,0.3,1.5,0.6,2.2,1
		c0.8,0.4,1.7,0.8,2.6,1.3c-0.6,1.2-1.4,2.7-2.5,4.5c-1.1,1.8-2.1,3.8-3.2,5.9c-1,2.1-2,4.2-2.8,6.4c-0.8,2.2-1.2,4.2-1.2,6
		c3.5-6.4,6.4-11.5,8.8-15.2c2.4-3.7,4-6,4.9-6.9c0.4-0.7,0.9-1.5,1.2-2.2c0.7-1.3,1.2-2.4,1.5-3.3c0.1,0,0.4,0.2,0.9,0.5
		c0.6,0.3,1.1,0.8,1.7,1.3c0.6,0.6,1.2,1.2,1.7,1.8c0.5,0.6,0.8,1.3,0.8,2c0,1-0.4,2.4-1.3,4c-0.9,1.6-1.9,3.4-2.9,5.4
		c-1,1.9-2,4-3,6.2c-0.9,2.2-1.4,4.4-1.5,6.6c3.1-5.7,5.7-10,7.8-13c2-3,3.7-5.4,5-7c1.3-1.7,2.3-3,3-4c0.7-1,1.2-2.2,1.6-3.8
		c1.1,0.7,2,1.3,2.6,1.8c0.6,0.5,1.2,1.1,1.7,1.7c0.5,0.6,0.8,1.2,0.8,1.8c0,1-0.4,2.4-1.3,4.2c-0.9,1.7-1.8,3.6-2.9,5.6
		c-1.1,2-2,4.1-2.9,6.1c-0.9,2.1-1.3,4.1-1.3,5.9c0,0.8,0.1,1.5,0.3,2.1c0.2,0.6,0.6,0.8,1.2,0.8c1,0,2.3-0.8,3.9-2.3
		c1.6-1.5,3.1-4,4.6-7.4l0.2-0.1c0.3,0,0.6,0.1,0.8,0.3l0.2,0.2c0,0.1-0.2,0.9-0.7,2.2c-0.5,1.3-1.2,2.8-2.1,4.3
		c-0.9,1.5-2,2.9-3.3,4.2c-1.3,1.3-2.8,1.9-4.4,1.9c-1.4,0-2.7-0.7-4-2.1c-1.2-1.4-1.8-3.4-1.8-6.1c0-1.9,0.3-4,0.9-6.2
		c0.6-2.2,1.3-4.4,2-6.4c-0.8,1.5-1.7,3.2-2.7,5.2c-1,2-2,3.9-2.9,5.7c-0.9,1.9-1.7,3.5-2.4,4.9C308.4,750.8,308,751.6,307.9,751.9z
		"/>
	<path fill="#FFFFFF" d="M358.6,741.2c0.4,0.2,0.6,0.4,0.6,0.4c0,0.3-0.2,1.2-0.7,2.8c-0.5,1.6-1.2,3.2-2.1,5
		c-0.9,1.8-2,3.4-3.3,4.9c-1.3,1.5-2.8,2.2-4.4,2.2c-1.1,0-2.3-0.5-3.4-1.4c-1.2-0.9-2-2.5-2.5-4.9c-0.3,0.4-0.7,0.8-1.1,1.3
		c-0.4,0.5-0.9,0.9-1.6,1.3c-0.6,0.4-1.4,0.8-2.2,1.1c-0.9,0.3-1.9,0.4-3.2,0.4c-1.7,0-3.1-0.4-4.2-1.2c-1.1-0.8-1.9-1.8-2.5-3
		c-0.6-1.2-1-2.4-1.2-3.6s-0.3-2.3-0.3-3.2c0-2.1,0.4-4.3,1.2-6.5c0.8-2.3,2-4.3,3.4-6.2c1.5-1.9,3.2-3.4,5.1-4.6
		c2-1.2,4.1-1.8,6.5-1.8c1.6,0,2.9,0.2,3.8,0.7c0.9,0.5,1.8,1,2.6,1.5c0.1-0.2,0.2-0.5,0.3-0.7c0-0.3,0.1-0.5,0.2-0.6
		c0.1,0,0.4,0.2,1,0.5c0.6,0.3,1.2,0.8,1.9,1.3c0.7,0.6,1.3,1.2,1.8,1.8c0.5,0.6,0.8,1.3,0.8,2c0,0.6-0.1,1.2-0.3,1.7
		c-0.2,0.6-0.5,1.1-0.8,1.7h-0.1c-0.6,1.1-1.2,2.3-2,3.6c-0.7,1.3-1.4,2.6-2,4c-0.6,1.3-1.1,2.7-1.5,4.1c-0.4,1.4-0.6,2.8-0.6,4.1
		c0,2.5,0.5,3.7,1.6,3.7c1,0,2.4-1,4-3.1c1.6-2,3.1-5.2,4.5-9.3c0-0.1,0.1-0.1,0.2-0.1C358.3,741.2,358.4,741.2,358.6,741.2z
		 M342.5,748.1c0-2.5,0.4-5.1,1.2-7.8c0.8-2.7,1.6-5,2.5-6.9c-0.7-0.7-1.4-1.4-2.1-1.8c-0.7-0.5-1.6-0.7-2.5-0.7
		c-1.3,0-2.5,0.4-3.9,1.2c-1.3,0.8-2.5,1.9-3.6,3.2c-1.1,1.3-2,2.8-2.7,4.4c-0.7,1.6-1.1,3.3-1.1,4.9c0,0.8,0.1,1.6,0.2,2.5
		c0.1,0.8,0.4,1.6,0.8,2.3c0.4,0.7,1,1.3,1.7,1.8c0.7,0.4,1.7,0.7,3,0.7c1.3,0,2.5-0.3,3.6-1C340.6,750.1,341.6,749.2,342.5,748.1z"
		/>
	<path fill="#FFFFFF" d="M386.5,749.1c-0.3,0.4-0.7,1-1.2,1.6c-0.5,0.6-1.1,1.2-1.8,1.7c-0.7,0.6-1.5,1-2.4,1.4s-1.9,0.6-3,0.6
		c-0.8,0-1.8-0.2-3-0.7c-1.2-0.5-1.9-1.4-2.3-2.8c-0.6,0.6-1.6,1.4-3,2.3c-1.4,1-3.1,1.5-5,1.5c-1.6,0-3-0.4-4.1-1.2
		c-1.1-0.8-2-1.7-2.7-2.8c-0.7-1.1-1.2-2.3-1.5-3.6c-0.3-1.3-0.4-2.5-0.4-3.6c0-1.8,0.4-3.8,1.1-6c0.7-2.2,1.8-4.3,3.2-6.2
		c1.4-1.9,3.1-3.6,5.1-4.9c2-1.3,4.2-2,6.7-2c1.1,0,2.1,0.1,3.1,0.3c0.9,0.2,1.7,0.5,2.4,0.9c1.1-2.8,2.1-5.3,3-7.3
		c0.9-2,1.5-3.6,2-4.6l0.8-2.3c0.2-0.7,0.4-1.3,0.6-2c0.2-0.7,0.3-1.2,0.3-1.7c0.1,0.1,0.6,0.2,1.2,0.5c0.7,0.3,1.4,0.6,2.1,1.1
		c0.7,0.4,1.4,1,2,1.6c0.6,0.6,0.9,1.4,0.9,2.2c0,0.4,0,0.8-0.1,1.2c-0.1,0.4-0.2,1-0.4,1.6c-0.5,1.2-1.5,3.2-2.9,6.1
		c-1.4,2.9-2.9,6-4.4,9.3c-1.5,3.3-2.9,6.6-4,9.9c-1.2,3.2-1.7,5.8-1.7,7.6c0,1.6,0.6,2.3,1.9,2.3c1.3,0,2.8-0.8,4.7-2.3
		c1.9-1.5,3.5-4,5-7.4l0.2-0.1c0.3,0,0.6,0.1,0.8,0.3l0.2,0.2c0,0.3-0.2,1.2-0.7,2.6C388.6,745.7,387.8,747.3,386.5,749.1z
		 M372.4,748.8c-0.1-0.3-0.1-0.8-0.1-1.6c0-2.1,0.3-4.4,0.9-7c0.6-2.6,1.3-5.2,2.2-7.8c-1.2-1-2.6-1.5-4.1-1.5
		c-1.5,0-2.9,0.5-4.3,1.4c-1.4,0.9-2.6,2.1-3.6,3.6c-1,1.5-1.9,3-2.5,4.7c-0.6,1.7-0.9,3.4-0.9,5c0,2.2,0.7,3.7,2,4.7
		c1.3,1,2.8,1.5,4.4,1.5c1.2,0,2.3-0.3,3.4-0.8C370.8,750.6,371.7,749.8,372.4,748.8z"/>
	<path fill="#FFFFFF" d="M412,744.1c0.1,0.1,0.2,0.3,0.2,0.4c-1.1,2.1-2.4,3.9-3.9,5.5c-1.3,1.3-2.9,2.6-4.9,3.7
		c-2,1.1-4.3,1.7-6.9,1.7c-1.9,0-3.6-0.4-4.9-1.2c-1.3-0.8-2.4-1.8-3.2-3.1c-0.8-1.2-1.4-2.5-1.7-4c-0.3-1.4-0.5-2.7-0.5-3.8
		c0-2.5,0.4-5,1.2-7.3c0.8-2.3,1.9-4.4,3.3-6.3c1.4-1.9,3-3.3,4.8-4.5c1.8-1.1,3.6-1.7,5.6-1.7c2.4,0,4.2,0.7,5.5,2
		c1.3,1.3,2,2.8,2,4.4s-0.3,3.1-1,4.5c-0.7,1.4-1.6,2.7-2.7,3.7c-1.2,1.1-2.5,1.9-4.1,2.6c-1.6,0.6-3.2,0.9-4.9,0.9
		c-1.2,0-2.2-0.1-3-0.4c-0.8-0.3-1.4-0.6-1.8-0.9c-0.4,1.3-0.7,2.7-0.7,4c0,2.1,0.7,4,2,5.6c1.3,1.7,3,2.5,5.2,2.5
		c1.6,0,3.3-0.4,5-1.3c1.7-0.9,3-1.7,4-2.3c1.1-0.8,2-1.5,2.6-2.1c0.6-0.6,1.1-1.1,1.4-1.5c0.3-0.4,0.5-0.7,0.6-0.9
		c0.1-0.2,0.2-0.3,0.4-0.3C411.7,744,411.9,744,412,744.1z M394.4,733.7c-1,1.5-2,3.1-2.8,4.9c0.2,0.1,0.7,0.1,1.5,0.1
		c1.1,0,2.2-0.3,3.2-0.8c1-0.5,2-1.2,2.7-1.9c0.8-0.7,1.4-1.5,1.9-2.4c0.5-0.9,0.7-1.6,0.7-2.2c0-1-0.5-1.5-1.6-1.5
		c-0.7,0-1.6,0.3-2.6,0.8C396.5,731.4,395.5,732.4,394.4,733.7z"/>
	<path fill="#FFFFFF" d="M424.8,738c1-2.7,2-5.1,2.8-7.2c0.8-2.1,1.7-4.4,2.7-6.8c-0.1,0.2,0.2,0.3,0.7,0.6c0.6,0.2,1.2,0.6,1.8,1
		c0.7,0.4,1.3,1,1.9,1.7c0.6,0.7,0.9,1.5,0.9,2.5c0,0.4-0.1,0.9-0.2,1.3c-0.7,1.3-1.4,2.6-2.2,4c-0.8,1.4-1.5,2.8-2.2,4.3
		c-0.7,1.5-1.2,2.9-1.7,4.4c-0.5,1.5-0.7,2.8-0.7,4.2c0,0.9,0.1,1.6,0.3,2.1s0.7,0.8,1.6,0.8c1.3,0,2.8-0.8,4.7-2.3
		c1.9-1.5,3.5-4,5-7.4l0.2-0.1c0.2,0,0.4,0.1,0.7,0.3l0.2,0.2c-0.7,2.6-1.5,4.7-2.4,6.3c-0.9,1.6-2,3.1-3.5,4.4
		c-1.5,1.3-3.4,2-5.7,2c-0.7,0-1.5-0.2-2.3-0.4c-0.8-0.3-1.5-0.9-2.2-1.7c-0.3,0.6-0.6,1.2-0.8,1.7c-0.2,0.5-0.5,1-0.8,1.6
		c3.4,0.4,5.8,0.7,7.3,0.9c1.4,0.1,2.1,0.8,2.1,2c0,1.6-0.1,2.9-0.2,4.1c-0.2,1.2-0.3,1.7-0.4,1.7c-1.6-0.4-3.4-1-5.4-1.7
		c-2-0.7-4-1.3-6.1-1.9c-1.7,2.5-3.3,4.2-4.9,5.2c-1.5,1-3.3,1.6-5.2,1.6c-0.7,0-1.4-0.1-2.2-0.3c-0.8-0.2-1.5-0.5-2.2-0.9
		c-0.7-0.4-1.2-1-1.7-1.8c-0.4-0.7-0.7-1.7-0.7-2.8c0-1.4,0.4-2.6,1.1-3.5c0.7-0.9,1.6-1.6,2.5-2.1c0.9-0.5,1.9-0.9,2.8-1
		c1-0.1,1.7-0.2,2.1-0.2c0.8,0,1.7,0,2.6,0s1.9,0.1,2.9,0.2v-0.1c1.3-3,2.4-5.9,3.5-8.8C422.8,743.2,423.8,740.5,424.8,738z
		 M416.2,760c0.5,0,1,0,1.4-0.1c0.4,0,0.9,0,1.5,0.2l-2.7-0.8h0.1c-0.9-0.3-1.8-0.5-2.7-0.7c-0.9-0.2-1.7-0.3-2.6-0.3
		c-1.3,0-2.4,0.3-3.4,1c-1,0.7-1.5,1.6-1.5,2.9c0,1,0.4,1.7,1.1,2.1c0.7,0.3,1.5,0.5,2.4,0.5c1,0,2.1-0.3,3.2-1
		C414.1,763.2,415.1,761.9,416.2,760z M433.2,718c0.6-1.4,1.7-2.1,3.3-2.1c1,0,1.9,0.4,2.5,1.1c0.6,0.7,0.9,1.5,0.9,2.5
		c0,1-0.5,2-1.4,2.8c-0.9,0.9-1.9,1.3-3,1.3c-1,0-1.7-0.4-2.2-1.1c-0.5-0.7-0.7-1.6-0.7-2.5c0-0.4,0-0.7,0.1-1
		C433,718.7,433.1,718.3,433.2,718z"/>
	<path fill="#FFFFFF" d="M463.4,744.1c0.1,0.1,0.2,0.3,0.2,0.4c-1.1,2.1-2.4,3.9-3.9,5.5c-1.3,1.3-2.9,2.6-4.9,3.7
		c-2,1.1-4.3,1.7-6.9,1.7c-1.9,0-3.6-0.4-4.9-1.2s-2.4-1.8-3.2-3.1c-0.8-1.2-1.4-2.5-1.7-4c-0.3-1.4-0.5-2.7-0.5-3.8
		c0-2.5,0.4-5,1.2-7.3c0.8-2.3,1.9-4.4,3.3-6.3c1.4-1.9,3-3.3,4.8-4.5c1.8-1.1,3.6-1.7,5.6-1.7c2.4,0,4.2,0.7,5.5,2
		c1.3,1.3,2,2.8,2,4.4s-0.3,3.1-1,4.5c-0.7,1.4-1.6,2.7-2.7,3.7c-1.2,1.1-2.5,1.9-4.1,2.6c-1.6,0.6-3.2,0.9-4.9,0.9
		c-1.2,0-2.2-0.1-3-0.4c-0.8-0.3-1.4-0.6-1.8-0.9c-0.4,1.3-0.7,2.7-0.7,4c0,2.1,0.7,4,2,5.6c1.3,1.7,3,2.5,5.2,2.5
		c1.6,0,3.3-0.4,5-1.3c1.7-0.9,3-1.7,4-2.3c1.1-0.8,2-1.5,2.6-2.1c0.6-0.6,1.1-1.1,1.4-1.5c0.3-0.4,0.5-0.7,0.6-0.9
		c0.1-0.2,0.2-0.3,0.4-0.3C463.1,744,463.2,744,463.4,744.1z M445.7,733.7c-1,1.5-2,3.1-2.8,4.9c0.2,0.1,0.7,0.1,1.5,0.1
		c1.1,0,2.2-0.3,3.2-0.8c1-0.5,2-1.2,2.7-1.9c0.8-0.7,1.4-1.5,1.9-2.4c0.5-0.9,0.7-1.6,0.7-2.2c0-1-0.5-1.5-1.6-1.5
		c-0.7,0-1.6,0.3-2.6,0.8C447.8,731.4,446.8,732.4,445.7,733.7z"/>
	<path fill="#FFFFFF" d="M503.5,743.3c-0.1,0.2-0.7,0.3-1.8,0.3c-0.6,0-1.3-0.1-2-0.2c-0.7-0.1-1.5-0.4-2.3-0.7
		c-0.4,1-0.9,2.3-1.6,3.6c-0.7,1.4-1.6,2.7-2.6,3.9c-1,1.2-2.1,2.2-3.4,3c-1.3,0.8-2.7,1.2-4.2,1.2c-2.2,0-4.1-0.6-5.7-1.8
		c-1.6-1.2-2.7-3.3-3.2-6.2c-0.4,0.8-1,1.7-1.6,2.6c-0.6,0.9-1.3,1.7-2.1,2.6c-0.8,0.8-1.7,1.5-2.6,2c-1,0.5-2,0.8-3.1,0.8
		c-1.4,0-2.8-0.7-4-2.1c-1.3-1.4-1.9-3.4-1.9-6.1c0-3.1,0.4-5.9,1.2-8.4s1.7-4.7,2.6-6.7c1-2,1.9-3.8,2.8-5.5
		c0.9-1.6,1.5-3.2,1.8-4.7c0.1,0,0.4,0.2,0.9,0.5c0.6,0.3,1.2,0.8,1.8,1.3c0.6,0.5,1.2,1.1,1.7,1.7c0.5,0.6,0.8,1.2,0.8,1.8
		c0,1.1-0.4,2.5-1.3,4.2c-0.9,1.7-1.9,3.6-2.9,5.5c-1,2-2,4-2.9,6.1c-0.9,2.1-1.3,4.1-1.3,5.9c0,1,0.1,1.8,0.4,2.4
		c0.3,0.6,0.8,0.9,1.7,0.9c1,0,2.3-0.6,3.7-1.9c1.5-1.3,2.8-3.5,4.1-6.6c0.1-2.8,0.6-5.2,1.2-7.5c0.7-2.2,1.4-4.1,2.2-5.7
		s1.8-3.2,3.1-4.9c0.4,0,1,0.2,1.7,0.5c0.7,0.3,1.4,0.7,2.1,1.1c0.7,0.4,1.5,0.9,2.3,1.7v0.1c-0.7,1-1.4,2.2-2.2,3.6
		c-0.8,1.3-1.6,2.8-2.3,4.2c-0.7,1.5-1.3,3-1.8,4.6c-0.5,1.6-0.7,3.2-0.7,4.9c0,1.3,0.2,2.4,0.7,3.2c0.5,0.8,1.4,1.2,2.6,1.2
		c1.1,0,2.2-0.3,3.1-0.9c1-0.6,1.9-1.4,2.7-2.3c0.8-0.9,1.5-1.9,2.2-2.9c0.6-1,1.2-2,1.6-2.8c-0.8-0.7-1.5-1.7-1.9-3
		s-0.7-2.6-0.7-4.1c0-0.7,0.1-1.6,0.4-2.8c0.3-1.2,0.7-2.4,1.2-3.5c0.5-1.2,1.2-2.1,1.9-3c0.7-0.8,1.6-1.2,2.5-1.2
		c1,0,1.7,0.4,2.1,1.2c0.4,0.8,0.6,1.8,0.6,3.1c0,1.1-0.1,2.3-0.4,3.7c-0.3,1.3-0.6,2.7-0.9,4c-0.3,1.3-0.7,2.5-1.1,3.6
		c-0.4,1.1-0.7,1.9-0.9,2.5c0.5,0.4,1.2,0.7,2,0.9c0.8,0.2,1.6,0.3,2.5,0.3c0.6,0,1,0,1.2-0.1h0.1v0.1c0,0.1,0,0.2,0.1,0.2
		c0,0.1,0,0.1-0.1,0.1c0,0-0.1,0-0.1,0.1V743.3z M495.4,739.1c0.1,0.2,0.1,0.2,0.2,0.3c0,0,0.1,0.1,0.2,0.3c0.2-0.4,0.5-1.1,0.8-2
		c0.3-0.9,0.6-1.8,0.9-2.8c0.3-1,0.6-2,0.8-3c0.2-1,0.3-1.8,0.3-2.5c0-1.1-0.3-1.7-0.9-1.7c-0.4,0-0.9,0.3-1.2,0.9
		c-0.4,0.6-0.7,1.3-1,2.1c-0.3,0.8-0.5,1.6-0.7,2.5c-0.2,0.9-0.2,1.5-0.2,2C494.5,736.6,494.8,737.9,495.4,739.1z"/>
	<path fill="#FFFFFF" d="M526.4,744.1c0.1,0.1,0.2,0.3,0.2,0.4c-1.1,2.1-2.4,3.9-3.9,5.5c-1.3,1.3-2.9,2.6-4.9,3.7
		c-2,1.1-4.3,1.7-6.9,1.7c-1.9,0-3.6-0.4-4.9-1.2s-2.4-1.8-3.2-3.1c-0.8-1.2-1.4-2.5-1.7-4c-0.3-1.4-0.5-2.7-0.5-3.8
		c0-2.5,0.4-5,1.2-7.3c0.8-2.3,1.9-4.4,3.3-6.3c1.4-1.9,3-3.3,4.8-4.5c1.8-1.1,3.6-1.7,5.6-1.7c2.4,0,4.2,0.7,5.5,2
		c1.3,1.3,2,2.8,2,4.4s-0.3,3.1-1,4.5c-0.7,1.4-1.6,2.7-2.7,3.7c-1.2,1.1-2.5,1.9-4.1,2.6c-1.6,0.6-3.2,0.9-4.9,0.9
		c-1.2,0-2.2-0.1-3-0.4c-0.8-0.3-1.4-0.6-1.8-0.9c-0.4,1.3-0.7,2.7-0.7,4c0,2.1,0.7,4,2,5.6c1.3,1.7,3,2.5,5.2,2.5
		c1.6,0,3.3-0.4,5-1.3c1.7-0.9,3-1.7,4-2.3c1.1-0.8,2-1.5,2.6-2.1c0.6-0.6,1.1-1.1,1.4-1.5c0.3-0.4,0.5-0.7,0.6-0.9
		c0.1-0.2,0.2-0.3,0.4-0.3C526.1,744,526.3,744,526.4,744.1z M508.8,733.7c-1,1.5-2,3.1-2.8,4.9c0.2,0.1,0.7,0.1,1.5,0.1
		c1.1,0,2.2-0.3,3.2-0.8c1-0.5,2-1.2,2.7-1.9c0.8-0.7,1.4-1.5,1.9-2.4c0.5-0.9,0.7-1.6,0.7-2.2c0-1-0.5-1.5-1.6-1.5
		c-0.7,0-1.6,0.3-2.6,0.8C510.9,731.4,509.8,732.4,508.8,733.7z"/>
	<path fill="#FFFFFF" d="M538.3,701.8c0.1,0,0.6,0.1,1.2,0.4c0.7,0.3,1.4,0.7,2.2,1.2c0.8,0.5,1.5,1.1,2.1,1.7
		c0.6,0.7,0.9,1.4,0.9,2.1c0,0.7-0.1,1.4-0.4,2.1c-0.3,0.7-0.5,1.4-0.8,2c-0.5,1.1-1.3,2.8-2.3,5c-1,2.2-2.1,4.7-3.3,7.4
		c-1.2,2.7-2.4,5.6-3.7,8.5c-1.3,3-2.4,5.8-3.4,8.5c-1,2.7-1.8,5.2-2.5,7.5c-0.6,2.3-0.9,4-0.9,5.3c0,0.2,0,0.3,0.1,0.6
		c0,0.2,0.1,0.3,0.3,0.3c0.4,0,1.3-0.7,2.8-2c1.5-1.3,3.5-3.9,5.9-7.8c0.6-0.6,1-0.9,1.2-0.9c0.1,0.1,0.2,0.3,0.2,0.6
		c0,0.7-0.4,1.8-1.3,3.5c-0.9,1.6-2,3.3-3.2,5s-2.5,3.1-3.8,4.4c-1.3,1.3-2.4,1.9-3.2,1.9c-0.3,0-0.7,0-1.1-0.1
		c-0.4,0-0.8-0.2-1.2-0.5c-0.4-0.3-0.8-0.8-1.1-1.4c-0.3-0.6-0.4-1.5-0.4-2.6c0-1.6,0.2-3.5,0.7-5.9c0.5-2.4,1.1-5,1.9-7.8
		c0.8-2.8,1.7-5.7,2.7-8.8c1-3,2-6,3.1-8.9c1-2.9,2-5.7,3-8.3c1-2.6,1.9-4.9,2.7-6.8c0.2-0.8,0.5-1.6,0.8-2.5c0.2-0.7,0.4-1.3,0.6-2
		C538.2,702.8,538.3,702.2,538.3,701.8z"/>
	<path fill="#FFFFFF" d="M562.4,741.3c0.4,0.2,0.6,0.4,0.6,0.4c0,0.1-0.2,0.9-0.7,2.2c-0.5,1.3-1.2,2.8-2.1,4.3
		c-0.9,1.5-2,2.9-3.3,4.2c-1.3,1.3-2.8,1.9-4.4,1.9c-1.4,0-2.7-0.7-4-2.1c-1.2-1.4-1.8-3.4-1.8-6.1c0-2.2,0.3-4.4,0.9-6.7
		c0.6-2.3,1.4-4.5,2.2-6.5c-0.8,0.1-1.6,0.3-2.3,0.3c-0.7,0.1-1.5,0.1-2.3,0.1c-0.4,0-0.7,0-1,0c-0.3,0-0.6,0-0.9-0.1
		c-1.4,2.9-2.5,5.2-3.2,6.9c-0.7,1.7-1.3,2.9-1.6,3.8c-0.3,0.9-0.6,1.4-0.7,1.7c-0.2,0.3-0.3,0.4-0.6,0.4c-0.6,0-0.9-0.2-0.9-0.6
		v-0.3c0-0.1,0-0.1,0.1-0.1c0.6-1.5,1.3-3.5,2.2-6c0.9-2.5,1.5-4.8,2-7c-1.3-0.8-2.1-1.8-2.6-3c-0.4-1.2-0.7-2.1-0.7-3
		c0-0.8,0.1-1.4,0.2-1.8c0.1-0.4,0.5-0.6,1.1-0.6c0.1,0,0.4,0,0.7,0c0.3,0,0.6,0.1,1,0.2c1.3,0.3,2.4,0.6,3.3,0.8
		c0.9,0.2,1.4,0.4,1.4,0.4c-0.2,0.5-0.4,0.8-0.4,0.9c-0.1,0.1-0.2,0.2-0.3,0.4c0,0.2,0.2,0.3,0.5,0.3c0.3,0.1,0.7,0.1,1.2,0.2
		c0.5,0.1,1,0.1,1.6,0.2c0.6,0,1.2,0.1,1.7,0.1h3.1c0.5-0.7,1-1.5,1.3-2.3c0.4-0.7,0.7-1.4,1-2.1c0.3-0.7,0.5-1.4,0.7-2
		c0.1,0,0.4,0.2,0.9,0.5c0.5,0.3,1.1,0.8,1.7,1.3c0.6,0.5,1.2,1.1,1.7,1.7c0.5,0.6,0.8,1.3,0.8,2c0,1.1-0.4,2.5-1.3,4.2
		c-0.9,1.7-1.9,3.6-2.9,5.5c-1,2-2,4-2.9,6.1c-0.9,2.1-1.3,4.1-1.3,5.9c0,0.8,0.1,1.5,0.3,2.1c0.2,0.6,0.6,0.8,1.2,0.8
		c1,0,2.3-0.8,3.9-2.3c1.6-1.5,3.1-4,4.6-7.4l0.2-0.1C562.1,741.2,562.2,741.2,562.4,741.3z"/>
	<path fill="#FFFFFF" d="M592.3,741.3c0.3,0.2,0.4,0.4,0.4,0.4v-0.1c-0.1,0-0.3,0.7-0.6,2c-0.3,1.3-0.9,2.8-1.7,4.4
		c-0.9,1.6-2,3-3.5,4.4c-1.5,1.3-3.4,2-5.8,2c-0.8,0-1.6-0.2-2.4-0.4c-0.8-0.3-1.5-0.9-2.2-1.7c-0.2,0.6-0.5,1.2-0.8,1.7
		c-0.3,0.5-0.6,1-0.8,1.6c2.7,0.6,5.1,1.1,7.4,1.5c2.2,0.4,4.3,0.6,6.2,0.6c0.7,0,1.3,0,1.7-0.1c0,1.5-0.5,2.9-1.4,4.2
		c-0.9,1.3-2.3,2-4.1,2c-1.6,0-3.5-0.3-5.7-1c-2.3-0.7-4.5-1.3-6.8-2c-1.5,2.6-3.1,4.4-4.8,5.4c-1.7,1-3.5,1.5-5.2,1.5
		c-0.3,0-0.8,0-1.6-0.1c-0.7-0.1-1.5-0.3-2.3-0.7c-0.8-0.4-1.5-0.9-2.1-1.7c-0.6-0.8-0.9-1.9-0.9-3.3c0-1.4,0.4-2.6,1.1-3.5
		c0.7-0.9,1.6-1.6,2.6-2.1c1-0.5,2-0.8,3-0.9c1-0.1,1.7-0.2,2.1-0.2c0.6,0,1.1,0,1.6,0.1c0.5,0,1,0.1,1.5,0.1c1.5,0,2.4-0.3,2.7-1
		c0.3-0.7,0.7-1.6,1.1-2.7c-0.8,0.8-1.7,1.5-2.8,2.1c-1,0.6-2.2,0.9-3.3,0.9c-1.3,0-2.6-0.7-3.9-2.1c-1.3-1.4-1.9-3.4-1.9-6.1
		c0-1.7,0.2-3.5,0.7-5.5c0.4-1.9,1-3.8,1.6-5.6c0.6-1.8,1.3-3.4,2-4.9c0.7-1.5,1.2-2.6,1.7-3.5l2.5-5.8c0.1,0,0.4,0.2,1,0.5
		c0.6,0.3,1.2,0.8,1.8,1.3c0.6,0.5,1.2,1.1,1.7,1.7c0.5,0.6,0.8,1.3,0.8,2c0,0.8-0.4,2.1-1.3,3.7c-0.9,1.7-1.8,3.5-2.9,5.6
		c-1.1,2-2,4.2-2.9,6.4c-0.9,2.2-1.3,4.2-1.3,6c0,1,0.1,1.8,0.4,2.4c0.3,0.6,0.8,0.9,1.7,0.9c1.3,0,2.8-1,4.6-2.9
		c1.8-1.9,3.4-5.3,4.9-10c0.7-2.2,1.3-4,1.8-5.4c0.5-1.4,1-2.5,1.3-3.3c0.4-0.8,0.7-1.5,0.9-2c0.2-0.5,0.4-1,0.4-1.5
		c1,0.5,2.1,1.3,3.3,2.2c1.2,1,1.7,2.2,1.7,3.7c0,0.8-0.3,1.7-0.8,2.7c-1.3,2.4-2.5,4.6-3.4,6.5c-0.9,2-1.4,4.2-1.4,6.8
		c0,0.9,0.1,1.6,0.3,2.1c0.2,0.5,0.7,0.7,1.6,0.7c1.3,0,2.8-0.8,4.7-2.3c1.9-1.5,3.6-4,5.1-7.4l0.2-0.1
		C592,741.2,592.1,741.2,592.3,741.3z M567.5,760c0.2-0.1,0.6-0.1,1.2-0.1c0.2,0,0.4,0,0.7,0.1c0.2,0,0.4,0.1,0.6,0.1h0.6l-2.8-0.7
		c-0.8-0.2-1.7-0.3-2.5-0.5c-0.9-0.2-1.7-0.3-2.5-0.4c-1.3,0-2.4,0.3-3.5,0.8c-1.1,0.6-1.6,1.5-1.6,2.8c0,1,0.4,1.7,1.2,2.1
		s1.6,0.7,2.5,0.7c1,0,2-0.4,3.1-1.1C565.4,763.2,566.4,761.9,567.5,760z"/>
</g>
<line fill="none" stroke="#FFFFFF" stroke-width="5" stroke-miterlimit="10" x1="1.5" y1="728.8" x2="167.2" y2="728.8"/>
<line fill="none" stroke="#FFFFFF" stroke-width="5" stroke-miterlimit="10" x1="602.1" y1="728.8" x2="767.8" y2="728.8"/>
</svg>
